<svg width="128" height="128" viewBox="0 0 128 128" fill="none" xmlns="http://www.w3.org/2000/svg">
<g clip-path="url(#clip0_136_83)">
<rect x="1" y="1" width="126" height="126" rx="23" fill="#C2E0BC" stroke="#612B06" stroke-width="2"/>
<path d="M36.8693 34.9091H43.3182L51.9545 55.9886H52.2955L60.9318 34.9091H67.3807V64H62.3239V44.0142H62.054L54.0142 63.9148H50.2358L42.196 43.9716H41.9261V64H36.8693V34.9091ZM82.5511 64.4261C80.3636 64.4261 78.4744 63.9716 76.8835 63.0625C75.3021 62.1439 74.0852 60.8466 73.233 59.1705C72.3807 57.4848 71.9545 55.5009 71.9545 53.2188C71.9545 50.9744 72.3807 49.0047 73.233 47.3097C74.0947 45.6051 75.2973 44.2794 76.8409 43.3324C78.3845 42.3759 80.1979 41.8977 82.2812 41.8977C83.6259 41.8977 84.8949 42.1155 86.0881 42.5511C87.2907 42.9773 88.3513 43.6402 89.2699 44.5398C90.1979 45.4394 90.9271 46.5852 91.4574 47.9773C91.9877 49.3598 92.2528 51.0076 92.2528 52.9205V54.4972H74.3693V51.0312H87.3239C87.3144 50.0464 87.1013 49.1705 86.6847 48.4034C86.268 47.6269 85.6856 47.0161 84.9375 46.571C84.1989 46.1259 83.3371 45.9034 82.3523 45.9034C81.3011 45.9034 80.3778 46.1591 79.5824 46.6705C78.7869 47.1723 78.1667 47.8352 77.7216 48.6591C77.286 49.4735 77.0634 50.3684 77.054 51.3438V54.3693C77.054 55.6383 77.286 56.7273 77.75 57.6364C78.214 58.536 78.8627 59.2273 79.696 59.7102C80.5294 60.1837 81.5047 60.4205 82.6222 60.4205C83.3703 60.4205 84.0473 60.3163 84.6534 60.108C85.2595 59.8902 85.785 59.5729 86.2301 59.1562C86.6752 58.7396 87.0114 58.2235 87.2386 57.608L92.0398 58.1477C91.7367 59.4167 91.1591 60.5246 90.3068 61.4716C89.464 62.4091 88.3845 63.1383 87.0682 63.6591C85.7519 64.1705 84.2462 64.4261 82.5511 64.4261Z" fill="#612B06"/>
<path d="M27.2784 76.3636H29.4091L33.1136 85.4091H33.25L36.9545 76.3636H39.0852V88H37.4148V79.5795H37.3068L33.875 87.983H32.4886L29.0568 79.5739H28.9489V88H27.2784V76.3636ZM45.2628 88.1761C44.4029 88.1761 43.6624 87.9924 43.0412 87.625C42.4238 87.2538 41.9465 86.733 41.6094 86.0625C41.276 85.3883 41.1094 84.5985 41.1094 83.6932C41.1094 82.7992 41.276 82.0114 41.6094 81.3295C41.9465 80.6477 42.4162 80.1155 43.0185 79.733C43.6245 79.3504 44.3329 79.1591 45.1435 79.1591C45.6359 79.1591 46.1132 79.2405 46.5753 79.4034C47.0374 79.5663 47.4522 79.822 47.8196 80.1705C48.187 80.5189 48.4768 80.9716 48.6889 81.5284C48.901 82.0814 49.0071 82.7538 49.0071 83.5455V84.1477H42.0696V82.875H47.3423C47.3423 82.428 47.2514 82.0322 47.0696 81.6875C46.8878 81.339 46.6321 81.0644 46.3026 80.8636C45.9768 80.6629 45.5942 80.5625 45.1548 80.5625C44.6776 80.5625 44.2609 80.6799 43.9048 80.9148C43.5526 81.1458 43.2798 81.4489 43.0866 81.8239C42.8973 82.1951 42.8026 82.5985 42.8026 83.0341V84.0284C42.8026 84.6117 42.9048 85.108 43.1094 85.517C43.3177 85.9261 43.6075 86.2386 43.9787 86.4545C44.3499 86.6667 44.7836 86.7727 45.2798 86.7727C45.6018 86.7727 45.8954 86.7273 46.1605 86.6364C46.4257 86.5417 46.6548 86.4015 46.848 86.2159C47.0412 86.0303 47.1889 85.8011 47.2912 85.5284L48.8991 85.8182C48.7704 86.2917 48.5393 86.7064 48.206 87.0625C47.8764 87.4148 47.4616 87.6894 46.9616 87.8864C46.4654 88.0795 45.8991 88.1761 45.2628 88.1761ZM52.5909 76.3636V88H50.892V76.3636H52.5909ZM58.5526 88.1761C57.7344 88.1761 57.0204 87.9886 56.4105 87.6136C55.8007 87.2386 55.3272 86.714 54.9901 86.0398C54.6529 85.3655 54.4844 84.5777 54.4844 83.6761C54.4844 82.7708 54.6529 81.9792 54.9901 81.3011C55.3272 80.6231 55.8007 80.0966 56.4105 79.7216C57.0204 79.3466 57.7344 79.1591 58.5526 79.1591C59.3707 79.1591 60.0848 79.3466 60.6946 79.7216C61.3045 80.0966 61.7779 80.6231 62.1151 81.3011C62.4522 81.9792 62.6207 82.7708 62.6207 83.6761C62.6207 84.5777 62.4522 85.3655 62.1151 86.0398C61.7779 86.714 61.3045 87.2386 60.6946 87.6136C60.0848 87.9886 59.3707 88.1761 58.5526 88.1761ZM58.5582 86.75C59.0885 86.75 59.5279 86.6098 59.8764 86.3295C60.2249 86.0492 60.4825 85.6761 60.6491 85.2102C60.8196 84.7443 60.9048 84.2311 60.9048 83.6705C60.9048 83.1136 60.8196 82.6023 60.6491 82.1364C60.4825 81.6667 60.2249 81.2898 59.8764 81.0057C59.5279 80.7216 59.0885 80.5795 58.5582 80.5795C58.0241 80.5795 57.581 80.7216 57.2287 81.0057C56.8802 81.2898 56.6207 81.6667 56.4503 82.1364C56.2836 82.6023 56.2003 83.1136 56.2003 83.6705C56.2003 84.2311 56.2836 84.7443 56.4503 85.2102C56.6207 85.6761 56.8802 86.0492 57.2287 86.3295C57.581 86.6098 58.0241 86.75 58.5582 86.75ZM67.7841 88.1705C67.0795 88.1705 66.4508 87.9905 65.8977 87.6307C65.3485 87.267 64.9167 86.75 64.6023 86.0795C64.2917 85.4053 64.1364 84.5966 64.1364 83.6534C64.1364 82.7102 64.2936 81.9034 64.608 81.233C64.9261 80.5625 65.3617 80.0492 65.9148 79.6932C66.4678 79.3371 67.0947 79.1591 67.7955 79.1591C68.3371 79.1591 68.7727 79.25 69.1023 79.4318C69.4356 79.6098 69.6932 79.8182 69.875 80.0568C70.0606 80.2955 70.2045 80.5057 70.3068 80.6875H70.4091V76.3636H72.108V88H70.4489V86.642H70.3068C70.2045 86.8277 70.0568 87.0398 69.8636 87.2784C69.6742 87.517 69.4129 87.7254 69.0795 87.9034C68.7462 88.0814 68.3144 88.1705 67.7841 88.1705ZM68.1591 86.7216C68.6477 86.7216 69.0606 86.5928 69.3977 86.3352C69.7386 86.0739 69.9962 85.7121 70.1705 85.25C70.3485 84.7879 70.4375 84.25 70.4375 83.6364C70.4375 83.0303 70.3504 82.5 70.1761 82.0455C70.0019 81.5909 69.7462 81.2367 69.4091 80.983C69.072 80.7292 68.6553 80.6023 68.1591 80.6023C67.6477 80.6023 67.2216 80.7348 66.8807 81C66.5398 81.2652 66.2822 81.6269 66.108 82.0852C65.9375 82.5436 65.8523 83.0606 65.8523 83.6364C65.8523 84.2197 65.9394 84.7443 66.1136 85.2102C66.2879 85.6761 66.5455 86.0455 66.8864 86.3182C67.2311 86.5871 67.6553 86.7216 68.1591 86.7216ZM74.5327 88V79.2727H76.2315V88H74.5327ZM75.3906 77.9261C75.0952 77.9261 74.8414 77.8277 74.6293 77.6307C74.4209 77.4299 74.3168 77.1913 74.3168 76.9148C74.3168 76.6345 74.4209 76.3958 74.6293 76.1989C74.8414 75.9981 75.0952 75.8977 75.3906 75.8977C75.6861 75.8977 75.938 75.9981 76.1463 76.1989C76.3584 76.3958 76.4645 76.6345 76.4645 76.9148C76.4645 77.1913 76.3584 77.4299 76.1463 77.6307C75.938 77.8277 75.6861 77.9261 75.3906 77.9261ZM84.0455 84.3807V79.2727H85.75V88H84.0795V86.4886H83.9886C83.7879 86.9545 83.4659 87.3428 83.0227 87.6534C82.5833 87.9602 82.036 88.1136 81.3807 88.1136C80.8201 88.1136 80.3239 87.9905 79.892 87.7443C79.464 87.4943 79.1269 87.125 78.8807 86.6364C78.6383 86.1477 78.517 85.5436 78.517 84.8239V79.2727H80.2159V84.6193C80.2159 85.214 80.3807 85.6875 80.7102 86.0398C81.0398 86.392 81.4678 86.5682 81.9943 86.5682C82.3125 86.5682 82.6288 86.4886 82.9432 86.3295C83.2614 86.1705 83.5246 85.9299 83.733 85.608C83.9451 85.286 84.0492 84.8769 84.0455 84.3807ZM88.0327 88V79.2727H89.6634V80.6932H89.7713C89.9531 80.2121 90.2505 79.8371 90.6634 79.5682C91.0762 79.2955 91.5705 79.1591 92.1463 79.1591C92.7296 79.1591 93.2183 79.2955 93.6122 79.5682C94.0099 79.8409 94.3035 80.2159 94.4929 80.6932H94.5838C94.7921 80.2273 95.1236 79.8561 95.5781 79.5795C96.0327 79.2992 96.5743 79.1591 97.2031 79.1591C97.9948 79.1591 98.6406 79.4072 99.1406 79.9034C99.6444 80.3996 99.8963 81.1477 99.8963 82.1477V88H98.1974V82.3068C98.1974 81.7159 98.0365 81.2879 97.7145 81.0227C97.3925 80.7576 97.008 80.625 96.5611 80.625C96.008 80.625 95.5781 80.7955 95.2713 81.1364C94.9645 81.4735 94.8111 81.9072 94.8111 82.4375V88H93.1179V82.1989C93.1179 81.7254 92.9702 81.3447 92.6747 81.0568C92.3793 80.7689 91.9948 80.625 91.5213 80.625C91.1993 80.625 90.902 80.7102 90.6293 80.8807C90.3603 81.0473 90.1425 81.2803 89.9759 81.5795C89.813 81.8788 89.7315 82.2254 89.7315 82.6193V88H88.0327Z" fill="#612B06"/>
<path d="M43.1193 111V109.727L47.0568 105.648C47.4773 105.205 47.8239 104.816 48.0966 104.483C48.3731 104.146 48.5795 103.826 48.7159 103.523C48.8523 103.22 48.9205 102.898 48.9205 102.557C48.9205 102.17 48.8295 101.837 48.6477 101.557C48.4659 101.273 48.2178 101.055 47.9034 100.903C47.589 100.748 47.2348 100.67 46.8409 100.67C46.4242 100.67 46.0606 100.756 45.75 100.926C45.4394 101.097 45.2008 101.337 45.0341 101.648C44.8674 101.958 44.7841 102.322 44.7841 102.739H43.108C43.108 102.03 43.2708 101.411 43.5966 100.881C43.9223 100.35 44.3693 99.9394 44.9375 99.6477C45.5057 99.3523 46.1515 99.2045 46.875 99.2045C47.6061 99.2045 48.25 99.3504 48.8068 99.642C49.3674 99.9299 49.8049 100.324 50.1193 100.824C50.4337 101.32 50.5909 101.881 50.5909 102.506C50.5909 102.938 50.5095 103.36 50.3466 103.773C50.1875 104.186 49.9091 104.646 49.5114 105.153C49.1136 105.657 48.5606 106.269 47.8523 106.989L45.5398 109.409V109.494H50.7784V111H43.1193ZM56.983 111.193C56.0852 111.189 55.3182 110.953 54.6818 110.483C54.0455 110.013 53.5587 109.33 53.2216 108.432C52.8845 107.534 52.7159 106.453 52.7159 105.188C52.7159 103.926 52.8845 102.848 53.2216 101.955C53.5625 101.061 54.0511 100.379 54.6875 99.9091C55.3277 99.4394 56.0928 99.2045 56.983 99.2045C57.8731 99.2045 58.6364 99.4413 59.2727 99.9148C59.9091 100.384 60.3958 101.066 60.733 101.96C61.0739 102.85 61.2443 103.926 61.2443 105.188C61.2443 106.456 61.0758 107.54 60.7386 108.438C60.4015 109.331 59.9148 110.015 59.2784 110.489C58.642 110.958 57.8769 111.193 56.983 111.193ZM56.983 109.676C57.7708 109.676 58.3864 109.292 58.8295 108.523C59.2765 107.754 59.5 106.642 59.5 105.188C59.5 104.222 59.3977 103.405 59.1932 102.739C58.9924 102.068 58.7027 101.561 58.3239 101.216C57.9489 100.867 57.5019 100.693 56.983 100.693C56.1989 100.693 55.5833 101.08 55.1364 101.852C54.6894 102.625 54.464 103.737 54.4602 105.188C54.4602 106.157 54.5606 106.977 54.7614 107.648C54.9659 108.314 55.2557 108.82 55.6307 109.165C56.0057 109.506 56.4564 109.676 56.983 109.676ZM63.9801 111.108C63.6695 111.108 63.4025 110.998 63.179 110.778C62.9555 110.555 62.8438 110.286 62.8438 109.972C62.8438 109.661 62.9555 109.396 63.179 109.176C63.4025 108.953 63.6695 108.841 63.9801 108.841C64.2907 108.841 64.5578 108.953 64.7812 109.176C65.0047 109.396 65.1165 109.661 65.1165 109.972C65.1165 110.18 65.0634 110.371 64.9574 110.545C64.8551 110.716 64.7188 110.852 64.5483 110.955C64.3778 111.057 64.1884 111.108 63.9801 111.108ZM67.3693 111V109.727L71.3068 105.648C71.7273 105.205 72.0739 104.816 72.3466 104.483C72.6231 104.146 72.8295 103.826 72.9659 103.523C73.1023 103.22 73.1705 102.898 73.1705 102.557C73.1705 102.17 73.0795 101.837 72.8977 101.557C72.7159 101.273 72.4678 101.055 72.1534 100.903C71.839 100.748 71.4848 100.67 71.0909 100.67C70.6742 100.67 70.3106 100.756 70 100.926C69.6894 101.097 69.4508 101.337 69.2841 101.648C69.1174 101.958 69.0341 102.322 69.0341 102.739H67.358C67.358 102.03 67.5208 101.411 67.8466 100.881C68.1723 100.35 68.6193 99.9394 69.1875 99.6477C69.7557 99.3523 70.4015 99.2045 71.125 99.2045C71.8561 99.2045 72.5 99.3504 73.0568 99.642C73.6174 99.9299 74.0549 100.324 74.3693 100.824C74.6837 101.32 74.8409 101.881 74.8409 102.506C74.8409 102.938 74.7595 103.36 74.5966 103.773C74.4375 104.186 74.1591 104.646 73.7614 105.153C73.3636 105.657 72.8106 106.269 72.1023 106.989L69.7898 109.409V109.494H75.0284V111H67.3693ZM77.1818 111V109.727L81.1193 105.648C81.5398 105.205 81.8864 104.816 82.1591 104.483C82.4356 104.146 82.642 103.826 82.7784 103.523C82.9148 103.22 82.983 102.898 82.983 102.557C82.983 102.17 82.892 101.837 82.7102 101.557C82.5284 101.273 82.2803 101.055 81.9659 100.903C81.6515 100.748 81.2973 100.67 80.9034 100.67C80.4867 100.67 80.1231 100.756 79.8125 100.926C79.5019 101.097 79.2633 101.337 79.0966 101.648C78.9299 101.958 78.8466 102.322 78.8466 102.739H77.1705C77.1705 102.03 77.3333 101.411 77.6591 100.881C77.9848 100.35 78.4318 99.9394 79 99.6477C79.5682 99.3523 80.214 99.2045 80.9375 99.2045C81.6686 99.2045 82.3125 99.3504 82.8693 99.642C83.4299 99.9299 83.8674 100.324 84.1818 100.824C84.4962 101.32 84.6534 101.881 84.6534 102.506C84.6534 102.938 84.572 103.36 84.4091 103.773C84.25 104.186 83.9716 104.646 83.5739 105.153C83.1761 105.657 82.6231 106.269 81.9148 106.989L79.6023 109.409V109.494H84.8409V111H77.1818Z" fill="#612B06"/>
<path d="M56.5341 13.3636V25H54.7727V15.125H54.7045L51.9205 16.9432V15.2614L54.8239 13.3636H56.5341ZM64.0966 13.3636V25H62.3352V15.125H62.267L59.483 16.9432V15.2614L62.3864 13.3636H64.0966ZM71.1136 13.2045C71.6326 13.2083 72.1439 13.303 72.6477 13.4886C73.1515 13.6742 73.6061 13.9773 74.0114 14.3977C74.4205 14.8182 74.7462 15.3864 74.9886 16.1023C75.2348 16.8144 75.3598 17.7008 75.3636 18.7614C75.3636 19.7803 75.2614 20.6875 75.0568 21.483C74.8523 22.2746 74.5587 22.9432 74.1761 23.4886C73.7973 24.0341 73.3371 24.4489 72.7955 24.733C72.2538 25.017 71.6439 25.1591 70.9659 25.1591C70.2727 25.1591 69.6572 25.0227 69.1193 24.75C68.5814 24.4773 68.1439 24.1004 67.8068 23.6193C67.4697 23.1345 67.2595 22.5777 67.1761 21.9489H68.9091C69.0227 22.4489 69.2538 22.8542 69.6023 23.1648C69.9545 23.4716 70.4091 23.625 70.9659 23.625C71.8182 23.625 72.483 23.2538 72.9602 22.5114C73.4375 21.7652 73.678 20.7235 73.6818 19.3864H73.5909C73.3939 19.7121 73.1477 19.9924 72.8523 20.2273C72.5606 20.4621 72.233 20.6439 71.8693 20.7727C71.5057 20.9015 71.1174 20.9659 70.7045 20.9659C70.0341 20.9659 69.4242 20.8011 68.875 20.4716C68.3258 20.142 67.8883 19.6894 67.5625 19.1136C67.2367 18.5379 67.0739 17.8807 67.0739 17.142C67.0739 16.4072 67.2405 15.7405 67.5739 15.142C67.911 14.5436 68.3807 14.0701 68.983 13.7216C69.589 13.3693 70.2992 13.197 71.1136 13.2045ZM71.1193 14.6818C70.6761 14.6818 70.2765 14.7917 69.9205 15.0114C69.5682 15.2273 69.2898 15.5208 69.0852 15.892C68.8807 16.2595 68.7784 16.6686 68.7784 17.1193C68.7784 17.5701 68.8769 17.9792 69.0739 18.3466C69.2746 18.7102 69.5473 19 69.892 19.2159C70.2405 19.428 70.6383 19.5341 71.0852 19.5341C71.4186 19.5341 71.7292 19.4697 72.017 19.3409C72.3049 19.2121 72.5568 19.0341 72.7727 18.8068C72.9886 18.5758 73.1572 18.3144 73.2784 18.0227C73.3996 17.7311 73.4602 17.4242 73.4602 17.1023C73.4602 16.6742 73.358 16.2765 73.1534 15.9091C72.9527 15.5417 72.6761 15.2462 72.3239 15.0227C71.9716 14.7955 71.5701 14.6818 71.1193 14.6818Z" fill="#612B06"/>
</g>
<defs>
<clipPath id="clip0_136_83">
<rect width="128" height="128" fill="white"/>
</clipPath>
</defs>
</svg>
